<svg xmlns="http://www.w3.org/2000/svg" viewBox="0 0 1240 1324" width="1240" height="1324">
<rect x="0" y="0" width="1240" height="1324" fill="#ffffff"/>
<text x="620.0" y="46" font-family="Helvetica,Arial,sans-serif" font-size="22" font-weight="bold" text-anchor="middle" fill="#111">Sengebund til futon 200 x 180 cm — mål i mm</text>
<g transform="translate(130,120)">
<text x="301.5" y="-18.0" font-family="Helvetica,Arial,sans-serif" font-size="15" font-weight="bold" text-anchor="middle" fill="#111">PLAN (set oppefra)</text>
<rect x="34.5" y="13.5" width="534.0" height="6.3" fill="#c9b487" stroke="#222" stroke-width="0.6" />
<rect x="34.5" y="550.2" width="534.0" height="6.3" fill="#c9b487" stroke="#222" stroke-width="0.6" />
<rect x="34.5" y="13.5" width="13.5" height="543.0" fill="#efe7d3" stroke="#555" stroke-width="0.5" />
<rect x="67.0" y="13.5" width="13.5" height="543.0" fill="#efe7d3" stroke="#555" stroke-width="0.5" />
<rect x="99.6" y="13.5" width="13.5" height="543.0" fill="#efe7d3" stroke="#555" stroke-width="0.5" />
<rect x="132.1" y="13.5" width="13.5" height="543.0" fill="#efe7d3" stroke="#555" stroke-width="0.5" />
<rect x="164.6" y="13.5" width="13.5" height="543.0" fill="#efe7d3" stroke="#555" stroke-width="0.5" />
<rect x="197.2" y="13.5" width="13.5" height="543.0" fill="#efe7d3" stroke="#555" stroke-width="0.5" />
<rect x="229.7" y="13.5" width="13.5" height="543.0" fill="#efe7d3" stroke="#555" stroke-width="0.5" />
<rect x="262.2" y="13.5" width="13.5" height="543.0" fill="#efe7d3" stroke="#555" stroke-width="0.5" />
<rect x="294.8" y="13.5" width="13.5" height="543.0" fill="#efe7d3" stroke="#555" stroke-width="0.5" />
<rect x="327.3" y="13.5" width="13.5" height="543.0" fill="#efe7d3" stroke="#555" stroke-width="0.5" />
<rect x="359.8" y="13.5" width="13.5" height="543.0" fill="#efe7d3" stroke="#555" stroke-width="0.5" />
<rect x="392.3" y="13.5" width="13.5" height="543.0" fill="#efe7d3" stroke="#555" stroke-width="0.5" />
<rect x="424.9" y="13.5" width="13.5" height="543.0" fill="#efe7d3" stroke="#555" stroke-width="0.5" />
<rect x="457.4" y="13.5" width="13.5" height="543.0" fill="#efe7d3" stroke="#555" stroke-width="0.5" />
<rect x="489.9" y="13.5" width="13.5" height="543.0" fill="#efe7d3" stroke="#555" stroke-width="0.5" />
<rect x="522.5" y="13.5" width="13.5" height="543.0" fill="#efe7d3" stroke="#555" stroke-width="0.5" />
<rect x="555.0" y="13.5" width="13.5" height="543.0" fill="#efe7d3" stroke="#555" stroke-width="0.5" />
<rect x="0.0" y="0.0" width="603.0" height="13.5" fill="#d8c9a8" stroke="#222" stroke-width="1.0" />
<rect x="0.0" y="556.5" width="603.0" height="13.5" fill="#d8c9a8" stroke="#222" stroke-width="1.0" />
<rect x="0.0" y="13.5" width="13.5" height="543.0" fill="#d8c9a8" stroke="#222" stroke-width="1.0" />
<rect x="589.5" y="13.5" width="13.5" height="543.0" fill="#d8c9a8" stroke="#222" stroke-width="1.0" />
<rect x="13.5" y="13.5" width="21.0" height="21.0" fill="#b99763" stroke="#222" stroke-width="0.8" />
<rect x="13.5" y="535.5" width="21.0" height="21.0" fill="#b99763" stroke="#222" stroke-width="0.8" />
<rect x="568.5" y="13.5" width="21.0" height="21.0" fill="#b99763" stroke="#222" stroke-width="0.8" />
<rect x="568.5" y="535.5" width="21.0" height="21.0" fill="#b99763" stroke="#222" stroke-width="0.8" />
<rect x="1.5" y="15.0" width="600.0" height="540.0" fill="none" stroke="#2a6" stroke-width="1.0" stroke-dasharray="6,4" />
<text x="301.5" y="289.0" font-family="Helvetica,Arial,sans-serif" font-size="12" font-weight="normal" text-anchor="middle" fill="#2a6">madras 2000 x 1800</text>
<line x1="0.0" y1="604.0" x2="603.0" y2="604.0" stroke="#c0392b" stroke-width="0.8"/>
<line x1="-3.0" y1="607.0" x2="3.0" y2="601.0" stroke="#c0392b" stroke-width="1.2"/>
<line x1="600.0" y1="607.0" x2="606.0" y2="601.0" stroke="#c0392b" stroke-width="1.2"/>
<text x="301.5" y="599.0" font-family="Helvetica,Arial,sans-serif" font-size="12" font-weight="normal" text-anchor="middle" fill="#c0392b">2010</text>
<line x1="-22.0" y1="0.0" x2="-22.0" y2="570.0" stroke="#c0392b" stroke-width="0.8"/>
<line x1="-25.0" y1="3.0" x2="-19.0" y2="-3.0" stroke="#c0392b" stroke-width="1.2"/>
<line x1="-25.0" y1="573.0" x2="-19.0" y2="567.0" stroke="#c0392b" stroke-width="1.2"/>
<text x="-28.0" y="289.0" font-family="Helvetica,Arial,sans-serif" font-size="12" font-weight="normal" text-anchor="end" fill="#c0392b">1900</text>
<line x1="625.0" y1="13.5" x2="625.0" y2="556.5" stroke="#c0392b" stroke-width="0.8"/>
<line x1="622.0" y1="16.5" x2="628.0" y2="10.5" stroke="#c0392b" stroke-width="1.2"/>
<line x1="622.0" y1="559.5" x2="628.0" y2="553.5" stroke="#c0392b" stroke-width="1.2"/>
<text x="631.0" y="289.0" font-family="Helvetica,Arial,sans-serif" font-size="12" font-weight="normal" text-anchor="start" fill="#c0392b">1810 (indv.)</text>
<line x1="197.2" y1="-8.0" x2="229.7" y2="-8.0" stroke="#c0392b" stroke-width="0.8"/>
<line x1="194.2" y1="-5.0" x2="200.2" y2="-11.0" stroke="#c0392b" stroke-width="1.2"/>
<line x1="226.7" y1="-5.0" x2="232.7" y2="-11.0" stroke="#c0392b" stroke-width="1.2"/>
<text x="213.4" y="-13.0" font-family="Helvetica,Arial,sans-serif" font-size="12" font-weight="normal" text-anchor="middle" fill="#c0392b">108</text>
<line x1="243.2" y1="582.0" x2="262.2" y2="582.0" stroke="#c0392b" stroke-width="0.8"/>
<line x1="240.2" y1="585.0" x2="246.2" y2="579.0" stroke="#c0392b" stroke-width="1.2"/>
<line x1="259.2" y1="585.0" x2="265.2" y2="579.0" stroke="#c0392b" stroke-width="1.2"/>
<text x="252.7" y="596.0" font-family="Helvetica,Arial,sans-serif" font-size="12" font-weight="normal" text-anchor="middle" fill="#c0392b">spalte 63</text>
</g>
<g transform="translate(130,820.0)">
<text x="301.5" y="-14.0" font-family="Helvetica,Arial,sans-serif" font-size="15" font-weight="bold" text-anchor="middle" fill="#111">OPSTALT (langside)</text>
<line x1="-10.0" y1="147.0" x2="613.0" y2="147.0" stroke="#111" stroke-width="1.4"/>
<rect x="34.5" y="66.0" width="534.0" height="13.5" fill="#c9b487" stroke="#999" stroke-width="0.5" stroke-dasharray="3,3" />
<rect x="0.0" y="51.0" width="603.0" height="36.0" fill="#d8c9a8" stroke="#222" stroke-width="1.0" />
<rect x="34.5" y="45.0" width="13.5" height="21.0" fill="#efe7d3" stroke="#555" stroke-width="0.5" />
<rect x="67.0" y="45.0" width="13.5" height="21.0" fill="#efe7d3" stroke="#555" stroke-width="0.5" />
<rect x="99.6" y="45.0" width="13.5" height="21.0" fill="#efe7d3" stroke="#555" stroke-width="0.5" />
<rect x="132.1" y="45.0" width="13.5" height="21.0" fill="#efe7d3" stroke="#555" stroke-width="0.5" />
<rect x="164.6" y="45.0" width="13.5" height="21.0" fill="#efe7d3" stroke="#555" stroke-width="0.5" />
<rect x="197.2" y="45.0" width="13.5" height="21.0" fill="#efe7d3" stroke="#555" stroke-width="0.5" />
<rect x="229.7" y="45.0" width="13.5" height="21.0" fill="#efe7d3" stroke="#555" stroke-width="0.5" />
<rect x="262.2" y="45.0" width="13.5" height="21.0" fill="#efe7d3" stroke="#555" stroke-width="0.5" />
<rect x="294.8" y="45.0" width="13.5" height="21.0" fill="#efe7d3" stroke="#555" stroke-width="0.5" />
<rect x="327.3" y="45.0" width="13.5" height="21.0" fill="#efe7d3" stroke="#555" stroke-width="0.5" />
<rect x="359.8" y="45.0" width="13.5" height="21.0" fill="#efe7d3" stroke="#555" stroke-width="0.5" />
<rect x="392.3" y="45.0" width="13.5" height="21.0" fill="#efe7d3" stroke="#555" stroke-width="0.5" />
<rect x="424.9" y="45.0" width="13.5" height="21.0" fill="#efe7d3" stroke="#555" stroke-width="0.5" />
<rect x="457.4" y="45.0" width="13.5" height="21.0" fill="#efe7d3" stroke="#555" stroke-width="0.5" />
<rect x="489.9" y="45.0" width="13.5" height="21.0" fill="#efe7d3" stroke="#555" stroke-width="0.5" />
<rect x="522.5" y="45.0" width="13.5" height="21.0" fill="#efe7d3" stroke="#555" stroke-width="0.5" />
<rect x="555.0" y="45.0" width="13.5" height="21.0" fill="#efe7d3" stroke="#555" stroke-width="0.5" />
<rect x="13.5" y="51.0" width="21.0" height="96.0" fill="#b99763" stroke="#222" stroke-width="0.9" />
<rect x="568.5" y="51.0" width="21.0" height="96.0" fill="#b99763" stroke="#222" stroke-width="0.9" />
<rect x="1.5" y="0.0" width="600.0" height="45.0" fill="none" stroke="#2a6" stroke-width="1.0" stroke-dasharray="6,4" />
<line x1="0.0" y1="177.0" x2="603.0" y2="177.0" stroke="#c0392b" stroke-width="0.8"/>
<line x1="-3.0" y1="180.0" x2="3.0" y2="174.0" stroke="#c0392b" stroke-width="1.2"/>
<line x1="600.0" y1="180.0" x2="606.0" y2="174.0" stroke="#c0392b" stroke-width="1.2"/>
<text x="301.5" y="172.0" font-family="Helvetica,Arial,sans-serif" font-size="12" font-weight="normal" text-anchor="middle" fill="#c0392b">2010</text>
<line x1="-18.0" y1="87.0" x2="-18.0" y2="147.0" stroke="#c0392b" stroke-width="0.8"/>
<line x1="-21.0" y1="90.0" x2="-15.0" y2="84.0" stroke="#c0392b" stroke-width="1.2"/>
<line x1="-21.0" y1="150.0" x2="-15.0" y2="144.0" stroke="#c0392b" stroke-width="1.2"/>
<text x="-24.0" y="121.0" font-family="Helvetica,Arial,sans-serif" font-size="12" font-weight="normal" text-anchor="end" fill="#c0392b">200</text>
<line x1="-18.0" y1="51.0" x2="-18.0" y2="87.0" stroke="#c0392b" stroke-width="0.8"/>
<line x1="-21.0" y1="54.0" x2="-15.0" y2="48.0" stroke="#c0392b" stroke-width="1.2"/>
<line x1="-21.0" y1="90.0" x2="-15.0" y2="84.0" stroke="#c0392b" stroke-width="1.2"/>
<text x="-24.0" y="73.0" font-family="Helvetica,Arial,sans-serif" font-size="12" font-weight="normal" text-anchor="end" fill="#c0392b">120</text>
<line x1="623.0" y1="147.0" x2="623.0" y2="45.0" stroke="#c0392b" stroke-width="0.8"/>
<line x1="620.0" y1="150.0" x2="626.0" y2="144.0" stroke="#c0392b" stroke-width="1.2"/>
<line x1="620.0" y1="48.0" x2="626.0" y2="42.0" stroke="#c0392b" stroke-width="1.2"/>
<text x="629.0" y="100.0" font-family="Helvetica,Arial,sans-serif" font-size="12" font-weight="normal" text-anchor="start" fill="#c0392b">340</text>
</g>
<g transform="translate(130,1087.0)">
<text x="285.0" y="-14.0" font-family="Helvetica,Arial,sans-serif" font-size="15" font-weight="bold" text-anchor="middle" fill="#111">ENDE (set fra fodenden)</text>
<line x1="-10.0" y1="147.0" x2="580.0" y2="147.0" stroke="#111" stroke-width="1.4"/>
<rect x="13.5" y="45.0" width="543.0" height="21.0" fill="#efe7d3" stroke="#555" stroke-width="0.6" />
<rect x="13.5" y="66.0" width="6.3" height="13.5" fill="#c9b487" stroke="#222" stroke-width="0.7" />
<rect x="550.2" y="66.0" width="6.3" height="13.5" fill="#c9b487" stroke="#222" stroke-width="0.7" />
<rect x="0.0" y="51.0" width="13.5" height="36.0" fill="#d8c9a8" stroke="#222" stroke-width="1.0" />
<rect x="556.5" y="51.0" width="13.5" height="36.0" fill="#d8c9a8" stroke="#222" stroke-width="1.0" />
<rect x="13.5" y="51.0" width="21.0" height="96.0" fill="#b99763" stroke="#222" stroke-width="0.9" />
<rect x="535.5" y="51.0" width="21.0" height="96.0" fill="#b99763" stroke="#222" stroke-width="0.9" />
<rect x="15.0" y="0.0" width="540.0" height="45.0" fill="none" stroke="#2a6" stroke-width="1.0" stroke-dasharray="6,4" />
<line x1="0.0" y1="177.0" x2="570.0" y2="177.0" stroke="#c0392b" stroke-width="0.8"/>
<line x1="-3.0" y1="180.0" x2="3.0" y2="174.0" stroke="#c0392b" stroke-width="1.2"/>
<line x1="567.0" y1="180.0" x2="573.0" y2="174.0" stroke="#c0392b" stroke-width="1.2"/>
<text x="285.0" y="172.0" font-family="Helvetica,Arial,sans-serif" font-size="12" font-weight="normal" text-anchor="middle" fill="#c0392b">1900</text>
<line x1="-18.0" y1="87.0" x2="-18.0" y2="147.0" stroke="#c0392b" stroke-width="0.8"/>
<line x1="-21.0" y1="90.0" x2="-15.0" y2="84.0" stroke="#c0392b" stroke-width="1.2"/>
<line x1="-21.0" y1="150.0" x2="-15.0" y2="144.0" stroke="#c0392b" stroke-width="1.2"/>
<text x="-24.0" y="121.0" font-family="Helvetica,Arial,sans-serif" font-size="12" font-weight="normal" text-anchor="end" fill="#c0392b">200</text>
<line x1="590.0" y1="45.0" x2="590.0" y2="66.0" stroke="#c0392b" stroke-width="0.8"/>
<line x1="587.0" y1="48.0" x2="593.0" y2="42.0" stroke="#c0392b" stroke-width="1.2"/>
<line x1="587.0" y1="69.0" x2="593.0" y2="63.0" stroke="#c0392b" stroke-width="1.2"/>
<text x="596.0" y="59.5" font-family="Helvetica,Arial,sans-serif" font-size="12" font-weight="normal" text-anchor="start" fill="#c0392b">70</text>
</g>
<g transform="translate(823.0,120)">
<text x="0.0" y="-18.0" font-family="Helvetica,Arial,sans-serif" font-size="15" font-weight="bold" text-anchor="start" fill="#111">STYKLISTE (mm, fyr)</text>
<rect x="-8.0" y="-16.0" width="400.0" height="26.0" fill="#333" stroke="none" stroke-width="1.0" />
<text x="0.0" y="0.0" font-family="Helvetica,Arial,sans-serif" font-size="12" font-weight="bold" text-anchor="start" fill="#fff">Del</text>
<text x="175.0" y="0.0" font-family="Helvetica,Arial,sans-serif" font-size="12" font-weight="bold" text-anchor="start" fill="#fff">Antal</text>
<text x="235.0" y="0.0" font-family="Helvetica,Arial,sans-serif" font-size="12" font-weight="bold" text-anchor="middle" fill="#fff">Dimension</text>
<text x="392.0" y="0.0" font-family="Helvetica,Arial,sans-serif" font-size="12" font-weight="bold" text-anchor="end" fill="#fff">Længde</text>
<rect x="-8.0" y="10.0" width="400.0" height="26.0" fill="#f0ece2" stroke="none" stroke-width="1.0" />
<text x="0.0" y="26.0" font-family="Helvetica,Arial,sans-serif" font-size="12" font-weight="normal" text-anchor="start" fill="#111">Vange (langside)</text>
<text x="175.0" y="26.0" font-family="Helvetica,Arial,sans-serif" font-size="12" font-weight="normal" text-anchor="start" fill="#111">2</text>
<text x="235.0" y="26.0" font-family="Helvetica,Arial,sans-serif" font-size="12" font-weight="normal" text-anchor="middle" fill="#111">45 x 120</text>
<text x="392.0" y="26.0" font-family="Helvetica,Arial,sans-serif" font-size="12" font-weight="normal" text-anchor="end" fill="#111">2010</text>
<text x="0.0" y="52.0" font-family="Helvetica,Arial,sans-serif" font-size="12" font-weight="normal" text-anchor="start" fill="#111">Endestykke</text>
<text x="175.0" y="52.0" font-family="Helvetica,Arial,sans-serif" font-size="12" font-weight="normal" text-anchor="start" fill="#111">2</text>
<text x="235.0" y="52.0" font-family="Helvetica,Arial,sans-serif" font-size="12" font-weight="normal" text-anchor="middle" fill="#111">45 x 120</text>
<text x="392.0" y="52.0" font-family="Helvetica,Arial,sans-serif" font-size="12" font-weight="normal" text-anchor="end" fill="#111">1810</text>
<rect x="-8.0" y="62.0" width="400.0" height="26.0" fill="#f0ece2" stroke="none" stroke-width="1.0" />
<text x="0.0" y="78.0" font-family="Helvetica,Arial,sans-serif" font-size="12" font-weight="normal" text-anchor="start" fill="#111">Ben</text>
<text x="175.0" y="78.0" font-family="Helvetica,Arial,sans-serif" font-size="12" font-weight="normal" text-anchor="start" fill="#111">4</text>
<text x="235.0" y="78.0" font-family="Helvetica,Arial,sans-serif" font-size="12" font-weight="normal" text-anchor="middle" fill="#111">70 x 70</text>
<text x="392.0" y="78.0" font-family="Helvetica,Arial,sans-serif" font-size="12" font-weight="normal" text-anchor="end" fill="#111">320</text>
<text x="0.0" y="104.0" font-family="Helvetica,Arial,sans-serif" font-size="12" font-weight="normal" text-anchor="start" fill="#111">Støtteliste</text>
<text x="175.0" y="104.0" font-family="Helvetica,Arial,sans-serif" font-size="12" font-weight="normal" text-anchor="start" fill="#111">2</text>
<text x="235.0" y="104.0" font-family="Helvetica,Arial,sans-serif" font-size="12" font-weight="normal" text-anchor="middle" fill="#111">21 x 45</text>
<text x="392.0" y="104.0" font-family="Helvetica,Arial,sans-serif" font-size="12" font-weight="normal" text-anchor="end" fill="#111">1780</text>
<rect x="-8.0" y="114.0" width="400.0" height="26.0" fill="#f0ece2" stroke="none" stroke-width="1.0" />
<text x="0.0" y="130.0" font-family="Helvetica,Arial,sans-serif" font-size="12" font-weight="normal" text-anchor="start" fill="#111">Lamel (højkant)</text>
<text x="175.0" y="130.0" font-family="Helvetica,Arial,sans-serif" font-size="12" font-weight="normal" text-anchor="start" fill="#111">17</text>
<text x="235.0" y="130.0" font-family="Helvetica,Arial,sans-serif" font-size="12" font-weight="normal" text-anchor="middle" fill="#111">45 x 70</text>
<text x="392.0" y="130.0" font-family="Helvetica,Arial,sans-serif" font-size="12" font-weight="normal" text-anchor="end" fill="#111">1810</text>
<text x="0.0" y="170.0" font-family="Helvetica,Arial,sans-serif" font-size="12" font-weight="normal" text-anchor="start" fill="#333"></text>
<text x="0.0" y="188.0" font-family="Helvetica,Arial,sans-serif" font-size="12" font-weight="normal" text-anchor="start" fill="#333">Frihøjde under ramme: 200 mm (til støvsugning)</text>
<text x="0.0" y="206.0" font-family="Helvetica,Arial,sans-serif" font-size="12" font-weight="normal" text-anchor="start" fill="#333">Sovehøjde (top af lameller): 340 mm</text>
<text x="0.0" y="224.0" font-family="Helvetica,Arial,sans-serif" font-size="12" font-weight="normal" text-anchor="start" fill="#333">Lamel c/c: 108 mm — spalte 63 mm — åbning ~59%</text>
<text x="0.0" y="242.0" font-family="Helvetica,Arial,sans-serif" font-size="12" font-weight="normal" text-anchor="start" fill="#333">Støtteliste monteres med underkant i flugt</text>
<text x="0.0" y="260.0" font-family="Helvetica,Arial,sans-serif" font-size="12" font-weight="normal" text-anchor="start" fill="#333">med vangens underkant (bevarer frihøjden).</text>
<text x="0.0" y="278.0" font-family="Helvetica,Arial,sans-serif" font-size="12" font-weight="normal" text-anchor="start" fill="#333">Ramme + lameller skruet = låst mod skævning.</text>
</g>
</svg>