<svg xmlns="http://www.w3.org/2000/svg" viewBox="0 0 1060 1250" width="1060" height="1250">
<rect x="0" y="0" width="1060" height="1250" fill="#ffffff"/>
<text x="530.0" y="40" font-family="Helvetica,Arial,sans-serif" font-size="21" font-weight="bold" text-anchor="middle" fill="#111">Boreplan — LET variant, futon 200 × 180 cm (mål i mm)</text>
<text x="130.0" y="110.0" font-family="Helvetica,Arial,sans-serif" font-size="15" font-weight="bold" text-anchor="start" fill="#111">A · Lamelhuller — plan (op gennem støttelisten)</text>
<rect x="130.0" y="228.0" width="323.3" height="17.8" fill="#c9b487" stroke="#222" stroke-width="0.7"/>
<text x="136.0" y="261.9" font-family="Helvetica,Arial,sans-serif" font-size="11" font-weight="normal" text-anchor="start" fill="#555">støtteliste (21 bred)</text>
<rect x="180.9" y="150.0" width="38.2" height="150.0" fill="#efe7d3" stroke="#555" stroke-width="0.8"/>
<circle cx="189.8" cy="236.9" r="4.0" fill="#fff" stroke="#c0392b" stroke-width="1.3"/>
<line x1="183.8" y1="236.9" x2="195.8" y2="236.9" stroke="#c0392b" stroke-width="0.6"/>
<line x1="189.8" y1="230.9" x2="189.8" y2="242.9" stroke="#c0392b" stroke-width="0.6"/>
<circle cx="210.2" cy="236.9" r="4.0" fill="#fff" stroke="#c0392b" stroke-width="1.3"/>
<line x1="204.2" y1="236.9" x2="216.2" y2="236.9" stroke="#c0392b" stroke-width="0.6"/>
<line x1="210.2" y1="230.9" x2="210.2" y2="242.9" stroke="#c0392b" stroke-width="0.6"/>
<text x="200.0" y="316.0" font-family="Helvetica,Arial,sans-serif" font-size="11" font-weight="normal" text-anchor="middle" fill="#555">lamel 0</text>
<rect x="272.5" y="150.0" width="38.2" height="150.0" fill="#efe7d3" stroke="#555" stroke-width="0.8"/>
<circle cx="281.4" cy="236.9" r="4.0" fill="#fff" stroke="#c0392b" stroke-width="1.3"/>
<line x1="275.4" y1="236.9" x2="287.4" y2="236.9" stroke="#c0392b" stroke-width="0.6"/>
<line x1="281.4" y1="230.9" x2="281.4" y2="242.9" stroke="#c0392b" stroke-width="0.6"/>
<circle cx="301.8" cy="236.9" r="4.0" fill="#fff" stroke="#c0392b" stroke-width="1.3"/>
<line x1="295.8" y1="236.9" x2="307.8" y2="236.9" stroke="#c0392b" stroke-width="0.6"/>
<line x1="301.8" y1="230.9" x2="301.8" y2="242.9" stroke="#c0392b" stroke-width="0.6"/>
<text x="291.6" y="316.0" font-family="Helvetica,Arial,sans-serif" font-size="11" font-weight="normal" text-anchor="middle" fill="#555">lamel 1</text>
<rect x="364.1" y="150.0" width="38.2" height="150.0" fill="#efe7d3" stroke="#555" stroke-width="0.8"/>
<circle cx="373.1" cy="236.9" r="4.0" fill="#fff" stroke="#c0392b" stroke-width="1.3"/>
<line x1="367.1" y1="236.9" x2="379.1" y2="236.9" stroke="#c0392b" stroke-width="0.6"/>
<line x1="373.1" y1="230.9" x2="373.1" y2="242.9" stroke="#c0392b" stroke-width="0.6"/>
<circle cx="393.5" cy="236.9" r="4.0" fill="#fff" stroke="#c0392b" stroke-width="1.3"/>
<line x1="387.5" y1="236.9" x2="399.5" y2="236.9" stroke="#c0392b" stroke-width="0.6"/>
<line x1="393.5" y1="230.9" x2="393.5" y2="242.9" stroke="#c0392b" stroke-width="0.6"/>
<text x="383.3" y="316.0" font-family="Helvetica,Arial,sans-serif" font-size="11" font-weight="normal" text-anchor="middle" fill="#555">lamel 2</text>
<line x1="200.0" y1="138.0" x2="291.6" y2="138.0" stroke="#c0392b" stroke-width="0.8"/>
<line x1="197.0" y1="141.0" x2="203.0" y2="135.0" stroke="#c0392b" stroke-width="1.2"/>
<line x1="288.6" y1="141.0" x2="294.6" y2="135.0" stroke="#c0392b" stroke-width="1.2"/>
<text x="245.8" y="133.0" font-family="Helvetica,Arial,sans-serif" font-size="12" font-weight="normal" text-anchor="middle" fill="#c0392b">108  (c/c lameller)</text>
<line x1="281.4" y1="279.9" x2="301.8" y2="279.9" stroke="#c0392b" stroke-width="0.8"/>
<line x1="278.4" y1="282.9" x2="284.4" y2="276.9" stroke="#c0392b" stroke-width="1.2"/>
<line x1="298.8" y1="282.9" x2="304.8" y2="276.9" stroke="#c0392b" stroke-width="1.2"/>
<text x="291.6" y="293.9" font-family="Helvetica,Arial,sans-serif" font-size="12" font-weight="normal" text-anchor="middle" fill="#c0392b">24</text>
<line x1="364.1" y1="138.0" x2="402.4" y2="138.0" stroke="#c0392b" stroke-width="0.8"/>
<line x1="361.1" y1="141.0" x2="367.1" y2="135.0" stroke="#c0392b" stroke-width="1.2"/>
<line x1="399.4" y1="141.0" x2="405.4" y2="135.0" stroke="#c0392b" stroke-width="1.2"/>
<text x="383.3" y="133.0" font-family="Helvetica,Arial,sans-serif" font-size="12" font-weight="normal" text-anchor="middle" fill="#c0392b">45</text>
<line x1="310.8" y1="334.0" x2="364.1" y2="334.0" stroke="#c0392b" stroke-width="0.8"/>
<line x1="307.8" y1="337.0" x2="313.8" y2="331.0" stroke="#c0392b" stroke-width="1.2"/>
<line x1="361.1" y1="337.0" x2="367.1" y2="331.0" stroke="#c0392b" stroke-width="1.2"/>
<text x="337.4" y="348.0" font-family="Helvetica,Arial,sans-serif" font-size="12" font-weight="normal" text-anchor="middle" fill="#c0392b">63</text>
<text x="130.0" y="330.0" font-family="Helvetica,Arial,sans-serif" font-size="11" font-weight="normal" text-anchor="start" fill="#333">2 skruer 4,5 × 70 pr. ende · Ø4 forbor i listen (= afstands-jig) · forbor lamel 3 mm</text>
<text x="130.0" y="408.0" font-family="Helvetica,Arial,sans-serif" font-size="15" font-weight="bold" text-anchor="start" fill="#111">B · Støtteliste → vange — huller langs listen (6 stk)</text>
<rect x="130.0" y="430.0" width="239.0" height="20.0" fill="#c9b487" stroke="#222" stroke-width="0.8"/>
<circle cx="140.1" cy="440.0" r="4.0" fill="#fff" stroke="#c0392b" stroke-width="1.3"/>
<line x1="134.1" y1="440.0" x2="146.1" y2="440.0" stroke="#c0392b" stroke-width="0.6"/>
<line x1="140.1" y1="434.0" x2="140.1" y2="446.0" stroke="#c0392b" stroke-width="0.6"/>
<circle cx="184.7" cy="440.0" r="4.0" fill="#fff" stroke="#c0392b" stroke-width="1.3"/>
<line x1="178.7" y1="440.0" x2="190.7" y2="440.0" stroke="#c0392b" stroke-width="0.6"/>
<line x1="184.7" y1="434.0" x2="184.7" y2="446.0" stroke="#c0392b" stroke-width="0.6"/>
<circle cx="229.2" cy="440.0" r="4.0" fill="#fff" stroke="#c0392b" stroke-width="1.3"/>
<line x1="223.2" y1="440.0" x2="235.2" y2="440.0" stroke="#c0392b" stroke-width="0.6"/>
<line x1="229.2" y1="434.0" x2="229.2" y2="446.0" stroke="#c0392b" stroke-width="0.6"/>
<circle cx="273.8" cy="440.0" r="4.0" fill="#fff" stroke="#c0392b" stroke-width="1.3"/>
<line x1="267.8" y1="440.0" x2="279.8" y2="440.0" stroke="#c0392b" stroke-width="0.6"/>
<line x1="273.8" y1="434.0" x2="273.8" y2="446.0" stroke="#c0392b" stroke-width="0.6"/>
<circle cx="318.3" cy="440.0" r="4.0" fill="#fff" stroke="#c0392b" stroke-width="1.3"/>
<line x1="312.3" y1="440.0" x2="324.3" y2="440.0" stroke="#c0392b" stroke-width="0.6"/>
<line x1="318.3" y1="434.0" x2="318.3" y2="446.0" stroke="#c0392b" stroke-width="0.6"/>
<circle cx="362.9" cy="440.0" r="4.0" fill="#fff" stroke="#c0392b" stroke-width="1.3"/>
<line x1="356.9" y1="440.0" x2="368.9" y2="440.0" stroke="#c0392b" stroke-width="0.6"/>
<line x1="362.9" y1="434.0" x2="362.9" y2="446.0" stroke="#c0392b" stroke-width="0.6"/>
<line x1="130.0" y1="470.0" x2="140.1" y2="470.0" stroke="#c0392b" stroke-width="0.8"/>
<line x1="127.0" y1="473.0" x2="133.0" y2="467.0" stroke="#c0392b" stroke-width="1.2"/>
<line x1="137.1" y1="473.0" x2="143.1" y2="467.0" stroke="#c0392b" stroke-width="1.2"/>
<text x="135.1" y="484.0" font-family="Helvetica,Arial,sans-serif" font-size="12" font-weight="normal" text-anchor="middle" fill="#c0392b">190</text>
<line x1="140.1" y1="470.0" x2="184.7" y2="470.0" stroke="#c0392b" stroke-width="0.8"/>
<line x1="137.1" y1="473.0" x2="143.1" y2="467.0" stroke="#c0392b" stroke-width="1.2"/>
<line x1="181.7" y1="473.0" x2="187.7" y2="467.0" stroke="#c0392b" stroke-width="1.2"/>
<text x="162.4" y="484.0" font-family="Helvetica,Arial,sans-serif" font-size="12" font-weight="normal" text-anchor="middle" fill="#c0392b">330 (c/c)</text>
<line x1="130.0" y1="422.0" x2="369.0" y2="422.0" stroke="#c0392b" stroke-width="0.8"/>
<line x1="127.0" y1="425.0" x2="133.0" y2="419.0" stroke="#c0392b" stroke-width="1.2"/>
<line x1="366.0" y1="425.0" x2="372.0" y2="419.0" stroke="#c0392b" stroke-width="1.2"/>
<text x="249.5" y="417.0" font-family="Helvetica,Arial,sans-serif" font-size="12" font-weight="normal" text-anchor="middle" fill="#c0392b">1770 (liste)</text>
<text x="130.0" y="496.0" font-family="Helvetica,Arial,sans-serif" font-size="11" font-weight="normal" text-anchor="start" fill="#333">Skru fra listens inderside vandret ind i vangen (skjult under lamellerne).</text>
<text x="150.0" y="559.1" font-family="Helvetica,Arial,sans-serif" font-size="15" font-weight="bold" text-anchor="start" fill="#111">C · Hjørne (vange-akse) — bolt gennem 45+95 mm ben</text>
<rect x="210.0" y="603.1" width="27.9" height="58.9" fill="#d8c9a8" stroke="#222" stroke-width="1.0"/>
<text x="223.6" y="608.1" font-family="Helvetica,Arial,sans-serif" font-size="10" font-weight="normal" text-anchor="middle" fill="#333">vange</text>
<rect x="237.9" y="603.1" width="58.9" height="182.9" fill="#b99763" stroke="#222" stroke-width="1.0"/>
<text x="267.0" y="724.0" font-family="Helvetica,Arial,sans-serif" font-size="11" font-weight="normal" text-anchor="middle" fill="#333">ben 45×95</text>
<line x1="198.8" y1="786.0" x2="318.5" y2="786.0" stroke="#111" stroke-width="1.6"/>
<text x="200.1" y="801.0" font-family="Helvetica,Arial,sans-serif" font-size="10" font-weight="normal" text-anchor="start" fill="#555">gulv</text>
<line x1="205.0" y1="643.4" x2="296.8" y2="643.4" stroke="#c0392b" stroke-width="1.8"/>
<circle cx="205.0" cy="643.4" r="5.0" fill="#f3d6d6" stroke="#c0392b" stroke-width="1.3"/>
<line x1="198.0" y1="643.4" x2="212.0" y2="643.4" stroke="#c0392b" stroke-width="0.6"/>
<line x1="205.0" y1="636.4" x2="205.0" y2="650.4" stroke="#c0392b" stroke-width="0.6"/>
<rect x="287.5" y="637.2" width="9.3" height="12.4" fill="#ffffff" stroke="#c0392b" stroke-width="1.0" stroke-dasharray="3,2"/>
<rect x="288.7" y="637.4" width="6.8" height="7.4" fill="#dbeaf2" stroke="#1f6f9c" stroke-width="1.2"/>
<line x1="205.0" y1="615.5" x2="296.8" y2="615.5" stroke="#c0392b" stroke-width="1.8"/>
<circle cx="205.0" cy="615.5" r="5.0" fill="#f3d6d6" stroke="#c0392b" stroke-width="1.3"/>
<line x1="198.0" y1="615.5" x2="212.0" y2="615.5" stroke="#c0392b" stroke-width="0.6"/>
<line x1="205.0" y1="608.5" x2="205.0" y2="622.5" stroke="#c0392b" stroke-width="0.6"/>
<rect x="287.5" y="609.3" width="9.3" height="12.4" fill="#ffffff" stroke="#c0392b" stroke-width="1.0" stroke-dasharray="3,2"/>
<rect x="288.7" y="609.5" width="6.8" height="7.4" fill="#dbeaf2" stroke="#1f6f9c" stroke-width="1.2"/>
<text x="302.8" y="615.5" font-family="Helvetica,Arial,sans-serif" font-size="10" font-weight="normal" text-anchor="start" fill="#1f6f9c">møtrik + skive</text>
<text x="302.8" y="629.5" font-family="Helvetica,Arial,sans-serif" font-size="10" font-weight="normal" text-anchor="start" fill="#1f6f9c">i Ø20 forsænkning</text>
<line x1="189.0" y1="643.4" x2="189.0" y2="786.0" stroke="#c0392b" stroke-width="0.8"/>
<line x1="186.0" y1="646.4" x2="192.0" y2="640.4" stroke="#c0392b" stroke-width="1.2"/>
<line x1="186.0" y1="789.0" x2="192.0" y2="783.0" stroke="#c0392b" stroke-width="1.2"/>
<text x="183.0" y="718.7" font-family="Helvetica,Arial,sans-serif" font-size="12" font-weight="normal" text-anchor="end" fill="#c0392b">230</text>
<line x1="159.0" y1="615.5" x2="159.0" y2="786.0" stroke="#c0392b" stroke-width="0.8"/>
<line x1="156.0" y1="618.5" x2="162.0" y2="612.5" stroke="#c0392b" stroke-width="1.2"/>
<line x1="156.0" y1="789.0" x2="162.0" y2="783.0" stroke="#c0392b" stroke-width="1.2"/>
<text x="153.0" y="704.8" font-family="Helvetica,Arial,sans-serif" font-size="12" font-weight="normal" text-anchor="end" fill="#c0392b">275</text>
<line x1="129.0" y1="643.4" x2="129.0" y2="662.0" stroke="#c0392b" stroke-width="0.8"/>
<line x1="126.0" y1="646.4" x2="132.0" y2="640.4" stroke="#c0392b" stroke-width="1.2"/>
<line x1="126.0" y1="665.0" x2="132.0" y2="659.0" stroke="#c0392b" stroke-width="1.2"/>
<text x="123.0" y="656.7" font-family="Helvetica,Arial,sans-serif" font-size="12" font-weight="normal" text-anchor="end" fill="#c0392b">30</text>
<line x1="101.0" y1="615.5" x2="101.0" y2="643.4" stroke="#c0392b" stroke-width="0.8"/>
<line x1="98.0" y1="618.5" x2="104.0" y2="612.5" stroke="#c0392b" stroke-width="1.2"/>
<line x1="98.0" y1="646.4" x2="104.0" y2="640.4" stroke="#c0392b" stroke-width="1.2"/>
<text x="95.0" y="633.5" font-family="Helvetica,Arial,sans-serif" font-size="12" font-weight="normal" text-anchor="end" fill="#c0392b">45</text>
<line x1="340.5" y1="662.0" x2="340.5" y2="786.0" stroke="#c0392b" stroke-width="0.8"/>
<line x1="337.5" y1="665.0" x2="343.5" y2="659.0" stroke="#c0392b" stroke-width="1.2"/>
<line x1="337.5" y1="789.0" x2="343.5" y2="783.0" stroke="#c0392b" stroke-width="1.2"/>
<text x="346.5" y="728.0" font-family="Helvetica,Arial,sans-serif" font-size="12" font-weight="normal" text-anchor="start" fill="#c0392b">200</text>
<line x1="210.0" y1="589.1" x2="296.8" y2="589.1" stroke="#c0392b" stroke-width="0.8"/>
<line x1="207.0" y1="592.1" x2="213.0" y2="586.1" stroke="#c0392b" stroke-width="1.2"/>
<line x1="293.8" y1="592.1" x2="299.8" y2="586.1" stroke="#c0392b" stroke-width="1.2"/>
<text x="253.4" y="584.1" font-family="Helvetica,Arial,sans-serif" font-size="12" font-weight="normal" text-anchor="middle" fill="#c0392b">Ø11 hul gennem 140 mm (45+95)</text>
<text x="150.0" y="826.0" font-family="Helvetica,Arial,sans-serif" font-size="11" font-weight="normal" text-anchor="start" fill="#333">VANGE-AKSE: M10×140 bolt gennem vange (45) + ben (95) = 140 mm. Fordi bolten præcis fylder hullet, sidder møtrik + skive i en Ø20 forsænkning (~15 mm dyb) boret i benets inderflade. Bræddebolt-hoved udenpå vangen.</text>
<text x="150.0" y="844.0" font-family="Helvetica,Arial,sans-serif" font-size="11" font-weight="normal" text-anchor="start" fill="#333">ENDESTYKKE-AKSE (vinkelret): M10×100 bolt gennem endestykke (45) + ben (45) = 90 mm — møtrik fladt, INGEN forsænkning (en 140 mm bolt ville stritte ~50 mm ind under lamellen). Højder 15/50, forskudt fra vange-boltene (230/275) så de ikke krydser.</text>
<text x="130.0" y="900.0" font-family="Helvetica,Arial,sans-serif" font-size="15" font-weight="bold" text-anchor="start" fill="#111">D · Boltplacering på vange og endestykke — opstalt udefra</text>
<rect x="130.0" y="957.0" width="800.0" height="38.0" fill="#d8c9a8" stroke="#222" stroke-width="1.0"/>
<text x="530.0" y="949.0" font-family="Helvetica,Arial,sans-serif" font-size="11" font-weight="normal" text-anchor="middle" fill="#333">VANGE udefra (2 stk, ens i begge ender)</text>
<circle cx="156.8" cy="983.0" r="4.0" fill="#fff" stroke="#c0392b" stroke-width="1.3"/>
<line x1="150.8" y1="983.0" x2="162.8" y2="983.0" stroke="#c0392b" stroke-width="0.6"/>
<line x1="156.8" y1="977.0" x2="156.8" y2="989.0" stroke="#c0392b" stroke-width="0.6"/>
<circle cx="156.8" cy="965.0" r="4.0" fill="#fff" stroke="#c0392b" stroke-width="1.3"/>
<line x1="150.8" y1="965.0" x2="162.8" y2="965.0" stroke="#c0392b" stroke-width="0.6"/>
<line x1="156.8" y1="959.0" x2="156.8" y2="971.0" stroke="#c0392b" stroke-width="0.6"/>
<circle cx="903.2" cy="983.0" r="4.0" fill="#fff" stroke="#c0392b" stroke-width="1.3"/>
<line x1="897.2" y1="983.0" x2="909.2" y2="983.0" stroke="#c0392b" stroke-width="0.6"/>
<line x1="903.2" y1="977.0" x2="903.2" y2="989.0" stroke="#c0392b" stroke-width="0.6"/>
<circle cx="903.2" cy="965.0" r="4.0" fill="#fff" stroke="#c0392b" stroke-width="1.3"/>
<line x1="897.2" y1="965.0" x2="909.2" y2="965.0" stroke="#c0392b" stroke-width="0.6"/>
<line x1="903.2" y1="959.0" x2="903.2" y2="971.0" stroke="#c0392b" stroke-width="0.6"/>
<line x1="130.0" y1="1011.0" x2="156.8" y2="1011.0" stroke="#c0392b" stroke-width="0.8"/>
<line x1="127.0" y1="1014.0" x2="133.0" y2="1008.0" stroke="#c0392b" stroke-width="1.2"/>
<line x1="153.8" y1="1014.0" x2="159.8" y2="1008.0" stroke="#c0392b" stroke-width="1.2"/>
<text x="143.4" y="1025.0" font-family="Helvetica,Arial,sans-serif" font-size="12" font-weight="normal" text-anchor="middle" fill="#c0392b">67</text>
<line x1="903.2" y1="1011.0" x2="930.0" y2="1011.0" stroke="#c0392b" stroke-width="0.8"/>
<line x1="900.2" y1="1014.0" x2="906.2" y2="1008.0" stroke="#c0392b" stroke-width="1.2"/>
<line x1="927.0" y1="1014.0" x2="933.0" y2="1008.0" stroke="#c0392b" stroke-width="1.2"/>
<text x="916.6" y="1025.0" font-family="Helvetica,Arial,sans-serif" font-size="12" font-weight="normal" text-anchor="middle" fill="#c0392b">67</text>
<line x1="130.8" y1="983.0" x2="130.8" y2="995.0" stroke="#c0392b" stroke-width="0.8"/>
<line x1="127.8" y1="986.0" x2="133.8" y2="980.0" stroke="#c0392b" stroke-width="1.2"/>
<line x1="127.8" y1="998.0" x2="133.8" y2="992.0" stroke="#c0392b" stroke-width="1.2"/>
<text x="124.8" y="993.0" font-family="Helvetica,Arial,sans-serif" font-size="12" font-weight="normal" text-anchor="end" fill="#c0392b">30</text>
<line x1="102.8" y1="965.0" x2="102.8" y2="983.0" stroke="#c0392b" stroke-width="0.8"/>
<line x1="99.8" y1="968.0" x2="105.8" y2="962.0" stroke="#c0392b" stroke-width="1.2"/>
<line x1="99.8" y1="986.0" x2="105.8" y2="980.0" stroke="#c0392b" stroke-width="1.2"/>
<text x="96.8" y="978.0" font-family="Helvetica,Arial,sans-serif" font-size="12" font-weight="normal" text-anchor="end" fill="#c0392b">45</text>
<text x="530.0" y="1035.0" font-family="Helvetica,Arial,sans-serif" font-size="11" font-weight="normal" text-anchor="middle" fill="#333">4 × M10×140 gennemgående pr. vange (gennem 45+95=140 mm ben). Højder fra underkant.</text>
<text x="530.0" y="1053.0" font-family="Helvetica,Arial,sans-serif" font-size="11" font-weight="normal" text-anchor="middle" fill="#c0392b">På benets INDERSIDE: bor Ø20 forsænkning ~15 mm dyb ved hvert hul til møtrik + skive.</text>
<rect x="130.0" y="1092.0" width="684.0" height="38.0" fill="#d8c9a8" stroke="#222" stroke-width="1.0"/>
<text x="472.0" y="1084.0" font-family="Helvetica,Arial,sans-serif" font-size="11" font-weight="normal" text-anchor="middle" fill="#333">ENDESTYKKE udefra (2 stk)</text>
<circle cx="148.8" cy="1124.0" r="4.0" fill="#fff" stroke="#c0392b" stroke-width="1.3"/>
<line x1="142.8" y1="1124.0" x2="154.8" y2="1124.0" stroke="#c0392b" stroke-width="0.6"/>
<line x1="148.8" y1="1118.0" x2="148.8" y2="1130.0" stroke="#c0392b" stroke-width="0.6"/>
<circle cx="148.8" cy="1110.0" r="4.0" fill="#fff" stroke="#c0392b" stroke-width="1.3"/>
<line x1="142.8" y1="1110.0" x2="154.8" y2="1110.0" stroke="#c0392b" stroke-width="0.6"/>
<line x1="148.8" y1="1104.0" x2="148.8" y2="1116.0" stroke="#c0392b" stroke-width="0.6"/>
<circle cx="795.2" cy="1124.0" r="4.0" fill="#fff" stroke="#c0392b" stroke-width="1.3"/>
<line x1="789.2" y1="1124.0" x2="801.2" y2="1124.0" stroke="#c0392b" stroke-width="0.6"/>
<line x1="795.2" y1="1118.0" x2="795.2" y2="1130.0" stroke="#c0392b" stroke-width="0.6"/>
<circle cx="795.2" cy="1110.0" r="4.0" fill="#fff" stroke="#c0392b" stroke-width="1.3"/>
<line x1="789.2" y1="1110.0" x2="801.2" y2="1110.0" stroke="#c0392b" stroke-width="0.6"/>
<line x1="795.2" y1="1104.0" x2="795.2" y2="1116.0" stroke="#c0392b" stroke-width="0.6"/>
<circle cx="472.0" cy="1120.8" r="3.0" fill="#fff" stroke="#1f6f9c" stroke-width="1.3"/>
<line x1="467.0" y1="1120.8" x2="477.0" y2="1120.8" stroke="#c0392b" stroke-width="0.6"/>
<line x1="472.0" y1="1115.8" x2="472.0" y2="1125.8" stroke="#c0392b" stroke-width="0.6"/>
<circle cx="472.0" cy="1111.2" r="3.0" fill="#fff" stroke="#1f6f9c" stroke-width="1.3"/>
<line x1="467.0" y1="1111.2" x2="477.0" y2="1111.2" stroke="#c0392b" stroke-width="0.6"/>
<line x1="472.0" y1="1106.2" x2="472.0" y2="1116.2" stroke="#c0392b" stroke-width="0.6"/>
<line x1="130.0" y1="1146.0" x2="148.8" y2="1146.0" stroke="#c0392b" stroke-width="0.8"/>
<line x1="127.0" y1="1149.0" x2="133.0" y2="1143.0" stroke="#c0392b" stroke-width="1.2"/>
<line x1="145.8" y1="1149.0" x2="151.8" y2="1143.0" stroke="#c0392b" stroke-width="1.2"/>
<text x="139.4" y="1160.0" font-family="Helvetica,Arial,sans-serif" font-size="12" font-weight="normal" text-anchor="middle" fill="#c0392b">47</text>
<line x1="795.2" y1="1146.0" x2="814.0" y2="1146.0" stroke="#c0392b" stroke-width="0.8"/>
<line x1="792.2" y1="1149.0" x2="798.2" y2="1143.0" stroke="#c0392b" stroke-width="1.2"/>
<line x1="811.0" y1="1149.0" x2="817.0" y2="1143.0" stroke="#c0392b" stroke-width="1.2"/>
<text x="804.6" y="1160.0" font-family="Helvetica,Arial,sans-serif" font-size="12" font-weight="normal" text-anchor="middle" fill="#c0392b">47</text>
<line x1="130.0" y1="1166.0" x2="472.0" y2="1166.0" stroke="#c0392b" stroke-width="0.8"/>
<line x1="127.0" y1="1169.0" x2="133.0" y2="1163.0" stroke="#c0392b" stroke-width="1.2"/>
<line x1="469.0" y1="1169.0" x2="475.0" y2="1163.0" stroke="#c0392b" stroke-width="1.2"/>
<text x="301.0" y="1180.0" font-family="Helvetica,Arial,sans-serif" font-size="12" font-weight="normal" text-anchor="middle" fill="#c0392b">855 (midt)</text>
<line x1="122.8" y1="1124.0" x2="122.8" y2="1130.0" stroke="#c0392b" stroke-width="0.8"/>
<line x1="119.8" y1="1127.0" x2="125.8" y2="1121.0" stroke="#c0392b" stroke-width="1.2"/>
<line x1="119.8" y1="1133.0" x2="125.8" y2="1127.0" stroke="#c0392b" stroke-width="1.2"/>
<text x="116.8" y="1131.0" font-family="Helvetica,Arial,sans-serif" font-size="12" font-weight="normal" text-anchor="end" fill="#c0392b">15</text>
<line x1="94.8" y1="1110.0" x2="94.8" y2="1124.0" stroke="#c0392b" stroke-width="0.8"/>
<line x1="91.8" y1="1113.0" x2="97.8" y2="1107.0" stroke="#c0392b" stroke-width="1.2"/>
<line x1="91.8" y1="1127.0" x2="97.8" y2="1121.0" stroke="#c0392b" stroke-width="1.2"/>
<text x="88.8" y="1121.0" font-family="Helvetica,Arial,sans-serif" font-size="12" font-weight="normal" text-anchor="end" fill="#c0392b">35</text>
<text x="472.0" y="1192.0" font-family="Helvetica,Arial,sans-serif" font-size="11" font-weight="normal" text-anchor="middle" fill="#333">M10×100 hjørnebolte i højde 15/50 (gennem 45+45=90 mm ben, møtrik fladt, INGEN forsænkning) · blå: 2 skruer 4,5×70 (Ø4 forbor) midtfor i højde 23/47 ind i midterdragerens endetræ (+ vinkelbeslag).</text>
<text x="472.0" y="1212.0" font-family="Helvetica,Arial,sans-serif" font-size="11" font-weight="normal" text-anchor="middle" fill="#333">Lamel → midterdrager: 1 skrue 4,5×70 lodret ned midt i hver lamel, langs dragerens centerlinje. Midterdrager → midterben: 2 skruer 4,5×70 lodret ned (dragerhøjde 45 mm giver nu fat).</text>
</svg>