<svg xmlns="http://www.w3.org/2000/svg" viewBox="0 0 1060 860" width="1060" height="860">
<rect x="0" y="0" width="1060" height="860" fill="#ffffff"/>
<text x="530.0" y="40" font-family="Helvetica,Arial,sans-serif" font-size="21" font-weight="bold" text-anchor="middle" fill="#111">Boreplan — LET variant, futon 200 × 180 cm (mål i mm)</text>
<text x="130.0" y="110.0" font-family="Helvetica,Arial,sans-serif" font-size="15" font-weight="bold" text-anchor="start" fill="#111">A · Lamelhuller — plan (op gennem støttelisten)</text>
<rect x="130.0" y="228.0" width="324.3" height="17.8" fill="#c9b487" stroke="#222" stroke-width="0.7"/>
<text x="136.0" y="261.9" font-family="Helvetica,Arial,sans-serif" font-size="11" font-weight="normal" text-anchor="start" fill="#555">støtteliste (21 bred)</text>
<rect x="180.9" y="150.0" width="38.2" height="150.0" fill="#efe7d3" stroke="#555" stroke-width="0.8"/>
<circle cx="189.8" cy="236.9" r="4.0" fill="#fff" stroke="#c0392b" stroke-width="1.3"/>
<line x1="183.8" y1="236.9" x2="195.8" y2="236.9" stroke="#c0392b" stroke-width="0.6"/>
<line x1="189.8" y1="230.9" x2="189.8" y2="242.9" stroke="#c0392b" stroke-width="0.6"/>
<circle cx="210.2" cy="236.9" r="4.0" fill="#fff" stroke="#c0392b" stroke-width="1.3"/>
<line x1="204.2" y1="236.9" x2="216.2" y2="236.9" stroke="#c0392b" stroke-width="0.6"/>
<line x1="210.2" y1="230.9" x2="210.2" y2="242.9" stroke="#c0392b" stroke-width="0.6"/>
<text x="200.0" y="316.0" font-family="Helvetica,Arial,sans-serif" font-size="11" font-weight="normal" text-anchor="middle" fill="#555">lamel 0</text>
<rect x="273.0" y="150.0" width="38.2" height="150.0" fill="#efe7d3" stroke="#555" stroke-width="0.8"/>
<circle cx="281.9" cy="236.9" r="4.0" fill="#fff" stroke="#c0392b" stroke-width="1.3"/>
<line x1="275.9" y1="236.9" x2="287.9" y2="236.9" stroke="#c0392b" stroke-width="0.6"/>
<line x1="281.9" y1="230.9" x2="281.9" y2="242.9" stroke="#c0392b" stroke-width="0.6"/>
<circle cx="302.3" cy="236.9" r="4.0" fill="#fff" stroke="#c0392b" stroke-width="1.3"/>
<line x1="296.3" y1="236.9" x2="308.3" y2="236.9" stroke="#c0392b" stroke-width="0.6"/>
<line x1="302.3" y1="230.9" x2="302.3" y2="242.9" stroke="#c0392b" stroke-width="0.6"/>
<text x="292.1" y="316.0" font-family="Helvetica,Arial,sans-serif" font-size="11" font-weight="normal" text-anchor="middle" fill="#555">lamel 1</text>
<rect x="365.2" y="150.0" width="38.2" height="150.0" fill="#efe7d3" stroke="#555" stroke-width="0.8"/>
<circle cx="374.1" cy="236.9" r="4.0" fill="#fff" stroke="#c0392b" stroke-width="1.3"/>
<line x1="368.1" y1="236.9" x2="380.1" y2="236.9" stroke="#c0392b" stroke-width="0.6"/>
<line x1="374.1" y1="230.9" x2="374.1" y2="242.9" stroke="#c0392b" stroke-width="0.6"/>
<circle cx="394.5" cy="236.9" r="4.0" fill="#fff" stroke="#c0392b" stroke-width="1.3"/>
<line x1="388.5" y1="236.9" x2="400.5" y2="236.9" stroke="#c0392b" stroke-width="0.6"/>
<line x1="394.5" y1="230.9" x2="394.5" y2="242.9" stroke="#c0392b" stroke-width="0.6"/>
<text x="384.3" y="316.0" font-family="Helvetica,Arial,sans-serif" font-size="11" font-weight="normal" text-anchor="middle" fill="#555">lamel 2</text>
<line x1="200.0" y1="138.0" x2="292.1" y2="138.0" stroke="#c0392b" stroke-width="0.8"/>
<line x1="197.0" y1="141.0" x2="203.0" y2="135.0" stroke="#c0392b" stroke-width="1.2"/>
<line x1="289.1" y1="141.0" x2="295.1" y2="135.0" stroke="#c0392b" stroke-width="1.2"/>
<text x="246.1" y="133.0" font-family="Helvetica,Arial,sans-serif" font-size="12" font-weight="normal" text-anchor="middle" fill="#c0392b">108  (c/c lameller)</text>
<line x1="281.9" y1="279.9" x2="302.3" y2="279.9" stroke="#c0392b" stroke-width="0.8"/>
<line x1="278.9" y1="282.9" x2="284.9" y2="276.9" stroke="#c0392b" stroke-width="1.2"/>
<line x1="299.3" y1="282.9" x2="305.3" y2="276.9" stroke="#c0392b" stroke-width="1.2"/>
<text x="292.1" y="293.9" font-family="Helvetica,Arial,sans-serif" font-size="12" font-weight="normal" text-anchor="middle" fill="#c0392b">24</text>
<line x1="365.2" y1="138.0" x2="403.4" y2="138.0" stroke="#c0392b" stroke-width="0.8"/>
<line x1="362.2" y1="141.0" x2="368.2" y2="135.0" stroke="#c0392b" stroke-width="1.2"/>
<line x1="400.4" y1="141.0" x2="406.4" y2="135.0" stroke="#c0392b" stroke-width="1.2"/>
<text x="384.3" y="133.0" font-family="Helvetica,Arial,sans-serif" font-size="12" font-weight="normal" text-anchor="middle" fill="#c0392b">45</text>
<line x1="311.3" y1="334.0" x2="365.2" y2="334.0" stroke="#c0392b" stroke-width="0.8"/>
<line x1="308.3" y1="337.0" x2="314.3" y2="331.0" stroke="#c0392b" stroke-width="1.2"/>
<line x1="362.2" y1="337.0" x2="368.2" y2="331.0" stroke="#c0392b" stroke-width="1.2"/>
<text x="338.2" y="348.0" font-family="Helvetica,Arial,sans-serif" font-size="12" font-weight="normal" text-anchor="middle" fill="#c0392b">63</text>
<text x="130.0" y="330.0" font-family="Helvetica,Arial,sans-serif" font-size="11" font-weight="normal" text-anchor="start" fill="#333">2 skruer 4,5 × 70 pr. ende · Ø4 forbor i listen (= afstands-jig) · forbor lamel 3 mm</text>
<text x="130.0" y="408.0" font-family="Helvetica,Arial,sans-serif" font-size="15" font-weight="bold" text-anchor="start" fill="#111">B · Støtteliste → vange — huller langs listen (6 stk)</text>
<rect x="130.0" y="430.0" width="240.3" height="20.0" fill="#c9b487" stroke="#222" stroke-width="0.8"/>
<circle cx="140.1" cy="440.0" r="4.0" fill="#fff" stroke="#c0392b" stroke-width="1.3"/>
<line x1="134.1" y1="440.0" x2="146.1" y2="440.0" stroke="#c0392b" stroke-width="0.6"/>
<line x1="140.1" y1="434.0" x2="140.1" y2="446.0" stroke="#c0392b" stroke-width="0.6"/>
<circle cx="184.7" cy="440.0" r="4.0" fill="#fff" stroke="#c0392b" stroke-width="1.3"/>
<line x1="178.7" y1="440.0" x2="190.7" y2="440.0" stroke="#c0392b" stroke-width="0.6"/>
<line x1="184.7" y1="434.0" x2="184.7" y2="446.0" stroke="#c0392b" stroke-width="0.6"/>
<circle cx="229.2" cy="440.0" r="4.0" fill="#fff" stroke="#c0392b" stroke-width="1.3"/>
<line x1="223.2" y1="440.0" x2="235.2" y2="440.0" stroke="#c0392b" stroke-width="0.6"/>
<line x1="229.2" y1="434.0" x2="229.2" y2="446.0" stroke="#c0392b" stroke-width="0.6"/>
<circle cx="273.8" cy="440.0" r="4.0" fill="#fff" stroke="#c0392b" stroke-width="1.3"/>
<line x1="267.8" y1="440.0" x2="279.8" y2="440.0" stroke="#c0392b" stroke-width="0.6"/>
<line x1="273.8" y1="434.0" x2="273.8" y2="446.0" stroke="#c0392b" stroke-width="0.6"/>
<circle cx="318.3" cy="440.0" r="4.0" fill="#fff" stroke="#c0392b" stroke-width="1.3"/>
<line x1="312.3" y1="440.0" x2="324.3" y2="440.0" stroke="#c0392b" stroke-width="0.6"/>
<line x1="318.3" y1="434.0" x2="318.3" y2="446.0" stroke="#c0392b" stroke-width="0.6"/>
<circle cx="362.9" cy="440.0" r="4.0" fill="#fff" stroke="#c0392b" stroke-width="1.3"/>
<line x1="356.9" y1="440.0" x2="368.9" y2="440.0" stroke="#c0392b" stroke-width="0.6"/>
<line x1="362.9" y1="434.0" x2="362.9" y2="446.0" stroke="#c0392b" stroke-width="0.6"/>
<line x1="130.0" y1="470.0" x2="140.1" y2="470.0" stroke="#c0392b" stroke-width="0.8"/>
<line x1="127.0" y1="473.0" x2="133.0" y2="467.0" stroke="#c0392b" stroke-width="1.2"/>
<line x1="137.1" y1="473.0" x2="143.1" y2="467.0" stroke="#c0392b" stroke-width="1.2"/>
<text x="135.1" y="484.0" font-family="Helvetica,Arial,sans-serif" font-size="12" font-weight="normal" text-anchor="middle" fill="#c0392b">190</text>
<line x1="140.1" y1="470.0" x2="184.7" y2="470.0" stroke="#c0392b" stroke-width="0.8"/>
<line x1="137.1" y1="473.0" x2="143.1" y2="467.0" stroke="#c0392b" stroke-width="1.2"/>
<line x1="181.7" y1="473.0" x2="187.7" y2="467.0" stroke="#c0392b" stroke-width="1.2"/>
<text x="162.4" y="484.0" font-family="Helvetica,Arial,sans-serif" font-size="12" font-weight="normal" text-anchor="middle" fill="#c0392b">330 (c/c)</text>
<line x1="130.0" y1="422.0" x2="370.3" y2="422.0" stroke="#c0392b" stroke-width="0.8"/>
<line x1="127.0" y1="425.0" x2="133.0" y2="419.0" stroke="#c0392b" stroke-width="1.2"/>
<line x1="367.3" y1="425.0" x2="373.3" y2="419.0" stroke="#c0392b" stroke-width="1.2"/>
<text x="250.2" y="417.0" font-family="Helvetica,Arial,sans-serif" font-size="12" font-weight="normal" text-anchor="middle" fill="#c0392b">1780 (liste)</text>
<text x="130.0" y="496.0" font-family="Helvetica,Arial,sans-serif" font-size="11" font-weight="normal" text-anchor="start" fill="#333">Skru fra listens inderside vandret ind i vangen (skjult under lamellerne).</text>
<text x="150.0" y="577.1" font-family="Helvetica,Arial,sans-serif" font-size="15" font-weight="bold" text-anchor="start" fill="#111">C · Hjørne (gavl-snit) — M10 gennemgående bræddebolt</text>
<rect x="210.0" y="603.1" width="27.9" height="58.9" fill="#d8c9a8" stroke="#222" stroke-width="1.0"/>
<text x="223.6" y="608.1" font-family="Helvetica,Arial,sans-serif" font-size="10" font-weight="normal" text-anchor="middle" fill="#333">vange</text>
<rect x="237.9" y="603.1" width="43.4" height="182.9" fill="#b99763" stroke="#222" stroke-width="1.0"/>
<text x="259.6" y="724.0" font-family="Helvetica,Arial,sans-serif" font-size="11" font-weight="normal" text-anchor="middle" fill="#333">ben</text>
<line x1="198.8" y1="786.0" x2="303.0" y2="786.0" stroke="#111" stroke-width="1.6"/>
<text x="200.1" y="801.0" font-family="Helvetica,Arial,sans-serif" font-size="10" font-weight="normal" text-anchor="start" fill="#555">gulv</text>
<line x1="205.0" y1="643.4" x2="281.3" y2="643.4" stroke="#c0392b" stroke-width="1.8"/>
<circle cx="205.0" cy="643.4" r="5.0" fill="#f3d6d6" stroke="#c0392b" stroke-width="1.3"/>
<line x1="198.0" y1="643.4" x2="212.0" y2="643.4" stroke="#c0392b" stroke-width="0.6"/>
<line x1="205.0" y1="636.4" x2="205.0" y2="650.4" stroke="#c0392b" stroke-width="0.6"/>
<rect x="281.3" y="637.4" width="9.9" height="7.4" fill="#dbeaf2" stroke="#1f6f9c" stroke-width="1.2"/>
<line x1="205.0" y1="615.5" x2="281.3" y2="615.5" stroke="#c0392b" stroke-width="1.8"/>
<circle cx="205.0" cy="615.5" r="5.0" fill="#f3d6d6" stroke="#c0392b" stroke-width="1.3"/>
<line x1="198.0" y1="615.5" x2="212.0" y2="615.5" stroke="#c0392b" stroke-width="0.6"/>
<line x1="205.0" y1="608.5" x2="205.0" y2="622.5" stroke="#c0392b" stroke-width="0.6"/>
<rect x="281.3" y="609.5" width="9.9" height="7.4" fill="#dbeaf2" stroke="#1f6f9c" stroke-width="1.2"/>
<text x="295.2" y="615.5" font-family="Helvetica,Arial,sans-serif" font-size="10" font-weight="normal" text-anchor="start" fill="#1f6f9c">møtrik + skive</text>
<line x1="189.0" y1="643.4" x2="189.0" y2="786.0" stroke="#c0392b" stroke-width="0.8"/>
<line x1="186.0" y1="646.4" x2="192.0" y2="640.4" stroke="#c0392b" stroke-width="1.2"/>
<line x1="186.0" y1="789.0" x2="192.0" y2="783.0" stroke="#c0392b" stroke-width="1.2"/>
<text x="183.0" y="718.7" font-family="Helvetica,Arial,sans-serif" font-size="12" font-weight="normal" text-anchor="end" fill="#c0392b">230</text>
<line x1="159.0" y1="615.5" x2="159.0" y2="786.0" stroke="#c0392b" stroke-width="0.8"/>
<line x1="156.0" y1="618.5" x2="162.0" y2="612.5" stroke="#c0392b" stroke-width="1.2"/>
<line x1="156.0" y1="789.0" x2="162.0" y2="783.0" stroke="#c0392b" stroke-width="1.2"/>
<text x="153.0" y="704.8" font-family="Helvetica,Arial,sans-serif" font-size="12" font-weight="normal" text-anchor="end" fill="#c0392b">275</text>
<line x1="325.0" y1="662.0" x2="325.0" y2="786.0" stroke="#c0392b" stroke-width="0.8"/>
<line x1="322.0" y1="665.0" x2="328.0" y2="659.0" stroke="#c0392b" stroke-width="1.2"/>
<line x1="322.0" y1="789.0" x2="328.0" y2="783.0" stroke="#c0392b" stroke-width="1.2"/>
<text x="331.0" y="728.0" font-family="Helvetica,Arial,sans-serif" font-size="12" font-weight="normal" text-anchor="start" fill="#c0392b">200</text>
<line x1="210.0" y1="591.1" x2="281.3" y2="591.1" stroke="#c0392b" stroke-width="0.8"/>
<line x1="207.0" y1="594.1" x2="213.0" y2="588.1" stroke="#c0392b" stroke-width="1.2"/>
<line x1="278.3" y1="594.1" x2="284.3" y2="588.1" stroke="#c0392b" stroke-width="1.2"/>
<text x="245.7" y="586.1" font-family="Helvetica,Arial,sans-serif" font-size="12" font-weight="normal" text-anchor="middle" fill="#c0392b">Ø11 hul gennem 115 mm</text>
<text x="150.0" y="826.0" font-family="Helvetica,Arial,sans-serif" font-size="11" font-weight="normal" text-anchor="start" fill="#333">Ø11 boltehul lige igennem ramme (45) + ben (70). Bræddebolt-hoved udenpå, møtrik + skive på indersiden i lamel-mellemrummet. Endestykke→ben er magen til, men bolte forskudt i højderne 215/250, så de ikke krydser.</text>
</svg>